<svg width="150" height="24" viewBox="0 0 150 24" fill="none" xmlns="http://www.w3.org/2000/svg">
<path d="M0 24V18L5.98879 12L0 6.00001V0H5.98879L11.9776 6.00001L17.9664 0H23.9552V6.00001L17.9664 12L23.9552 18V24H17.9664L11.9776 18L5.98879 24H0Z" fill="white"/>
<path fill-rule="evenodd" clip-rule="evenodd" d="M150.001 0.00195312H29.9485V23.9997H150.001V0.00195312ZM55.2381 18.5783V5.42381H49.5975L45.9067 12.5761L42.216 5.42381H36.5821V18.5783H40.0842V8.47557L45.3923 18.5783H46.4279L51.736 8.47557V18.5783H55.2381ZM71.6164 10.5641H61.7077V8.29553H73.4449V5.42381H58.2056V18.5783H73.4449V15.7111H61.7077V13.4403H71.6164V10.5641ZM84.2082 8.29418H90.0757V5.41795H74.8364V8.29418H80.7062V18.5702H84.2082V8.29418ZM107.25 18.5815V5.42021L103.748 5.42696V10.565H95.5109V5.41795L92.0088 5.42696V18.5815H95.5109V13.4435H103.748V18.5815H107.25ZM125.397 13.4741V10.7216C125.395 7.12748 124.24 5.42606 120.583 5.42381H114.752C111.092 5.42381 109.938 7.12523 109.938 10.7216V13.4741C109.938 17.21 111.566 18.5783 115.226 18.5783H120.111C123.768 18.5783 125.397 17.21 125.397 13.4741ZM138.077 5.42381H128.067V18.5761H138.551C142.21 18.5761 143.365 16.8769 143.365 13.2805V10.5281C143.365 6.79215 141.736 5.42381 138.077 5.42381Z" fill="white"/>
<path d="M121.789 10.5416C121.789 9.15524 121.333 8.29553 120.04 8.29553H115.293C113.997 8.29553 113.543 9.15524 113.543 10.5416V13.6586C113.543 15.36 114.087 15.7111 115.311 15.7111H120.022C121.246 15.7111 121.789 15.36 121.789 13.6586V10.5416Z" fill="white"/>
<path d="M131.565 15.7089H138.005C139.301 15.7089 139.755 14.8492 139.755 13.4628V10.3458C139.755 8.64436 139.212 8.29328 137.987 8.29328H131.565V15.7089Z" fill="white"/>
</svg>
