<svg width="86" height="32" viewBox="0 0 86 32" fill="none" xmlns="http://www.w3.org/2000/svg">
<g clip-path="url(#clip0_94_1021)">
<g clip-path="url(#clip1_94_1021)">
<path d="M13.4662 30C16.0345 30 18.1189 27.9354 18.1189 25.3916V20.7832H13.4662C10.8979 20.7832 8.81348 22.8478 8.81348 25.3916C8.81348 27.9354 10.8979 30 13.4662 30Z" fill="#EFEEEA"/>
<path d="M8.81348 16.1749C8.81348 13.6311 10.8979 11.5665 13.4662 11.5665H18.1189V20.7833H13.4662C10.8979 20.7833 8.81348 18.7187 8.81348 16.1749Z" fill="#EFEEEA"/>
<path d="M8.81348 6.95811C8.81348 4.41428 10.8979 2.34973 13.4662 2.34973H18.1189V11.5665H13.4662C10.8979 11.5665 8.81348 9.50193 8.81348 6.95811Z" fill="#EFEEEA"/>
<path d="M18.1189 2.34973H22.7716C25.3399 2.34973 27.4243 4.41428 27.4243 6.95811C27.4243 9.50193 25.3399 11.5665 22.7716 11.5665H18.1189V2.34973Z" fill="#EFEEEA"/>
<path d="M27.4243 16.1749C27.4243 18.7187 25.3399 20.7833 22.7716 20.7833C20.2033 20.7833 18.1189 18.7187 18.1189 16.1749C18.1189 13.6311 20.2033 11.5665 22.7716 11.5665C25.3399 11.5665 27.4243 13.6311 27.4243 16.1749Z" fill="#EFEEEA"/>
</g>
<path d="M49.78 23V9H58.6V11.18H52.34V14.68H57.82V16.86H52.34V23H49.78ZM61.4245 11.8C60.9712 11.8 60.5779 11.64 60.2445 11.32C59.9245 10.9867 59.7645 10.5933 59.7645 10.14C59.7645 9.67333 59.9245 9.28 60.2445 8.96C60.5779 8.64 60.9712 8.48 61.4245 8.48C61.8912 8.48 62.2845 8.64 62.6045 8.96C62.9245 9.28 63.0845 9.67333 63.0845 10.14C63.0845 10.5933 62.9245 10.9867 62.6045 11.32C62.2845 11.64 61.8912 11.8 61.4245 11.8ZM60.1445 23V13.08H62.7045V23H60.1445ZM68.8581 27.64C67.9515 27.64 67.1381 27.54 66.4181 27.34C65.6981 27.14 65.1248 26.8133 64.6981 26.36C64.2848 25.92 64.0781 25.34 64.0781 24.62C64.0781 24.1533 64.1781 23.7467 64.3781 23.4C64.5781 23.0667 64.8848 22.7733 65.2981 22.52C64.9515 22.32 64.6915 22.0667 64.5181 21.76C64.3448 21.4533 64.2581 21.1 64.2581 20.7C64.2581 19.82 64.6715 19.14 65.4981 18.66C65.2048 18.3533 64.9781 18.0067 64.8181 17.62C64.6581 17.22 64.5781 16.8067 64.5781 16.38C64.5781 15.66 64.7515 15.04 65.0981 14.52C65.4448 13.9867 65.9248 13.5733 66.5381 13.28C67.1515 12.9867 67.8515 12.84 68.6381 12.84C69.2115 12.84 69.7381 12.92 70.2181 13.08H73.7781V15H72.3981C72.4781 15.2267 72.5448 15.4533 72.5981 15.68C72.6648 15.9067 72.6981 16.14 72.6981 16.38C72.6981 17.0733 72.5181 17.6867 72.1581 18.22C71.7981 18.7533 71.3115 19.1733 70.6981 19.48C70.0981 19.7733 69.4115 19.92 68.6381 19.92C68.3048 19.92 67.9981 19.8933 67.7181 19.84C67.4381 19.7733 67.1648 19.6733 66.8981 19.54C66.6048 19.6867 66.4581 19.92 66.4581 20.24C66.4581 20.8267 66.9448 21.12 67.9181 21.12H69.7381C70.5381 21.12 71.2181 21.2333 71.7781 21.46C72.3515 21.6733 72.7848 22.0133 73.0781 22.48C73.3715 22.9467 73.5181 23.54 73.5181 24.26C73.5181 24.9533 73.3115 25.5533 72.8981 26.06C72.4848 26.5667 71.9248 26.9533 71.2181 27.22C70.5115 27.5 69.7248 27.64 68.8581 27.64ZM68.8581 25.64C69.4981 25.64 70.0381 25.5333 70.4781 25.32C70.9315 25.12 71.1581 24.8133 71.1581 24.4C71.1581 23.6133 70.6115 23.22 69.5181 23.22H68.0781C67.5448 23.22 67.1315 23.32 66.8381 23.52C66.5581 23.72 66.4181 24.0133 66.4181 24.4C66.4181 24.7067 66.5315 24.9467 66.7581 25.12C66.9848 25.3067 67.2848 25.44 67.6581 25.52C68.0315 25.6 68.4315 25.64 68.8581 25.64ZM68.6181 17.92C69.1248 17.92 69.5381 17.78 69.8581 17.5C70.1915 17.2067 70.3581 16.8333 70.3581 16.38C70.3581 15.94 70.1915 15.5733 69.8581 15.28C69.5381 14.9867 69.1248 14.84 68.6181 14.84C68.1115 14.84 67.6981 14.9867 67.3781 15.28C67.0715 15.5733 66.9181 15.94 66.9181 16.38C66.9181 16.8333 67.0648 17.2067 67.3581 17.5C67.6648 17.78 68.0848 17.92 68.6181 17.92ZM75.025 23V13.08H77.565V14.22C77.8983 13.7533 78.325 13.4067 78.845 13.18C79.365 12.9533 79.9117 12.84 80.485 12.84C81.2317 12.84 81.925 13 82.565 13.32C83.2183 13.6267 83.725 14.1133 84.085 14.78C84.4183 14.1667 84.8783 13.6933 85.465 13.36C86.065 13.0133 86.7183 12.84 87.425 12.84C88.185 12.84 88.8717 13 89.485 13.32C90.1117 13.6267 90.605 14.1 90.965 14.74C91.325 15.38 91.505 16.18 91.505 17.14V23H88.965V17.5C88.965 16.7533 88.785 16.16 88.425 15.72C88.065 15.28 87.5117 15.06 86.765 15.06C86.0317 15.06 85.4783 15.28 85.105 15.72C84.7317 16.16 84.545 16.7533 84.545 17.5V23H82.005V17.5C82.005 16.74 81.8117 16.1467 81.425 15.72C81.0517 15.28 80.5117 15.06 79.805 15.06C79.205 15.06 78.6783 15.2533 78.225 15.64C77.785 16.0133 77.565 16.6333 77.565 17.5V23H75.025ZM96.19 23.24C95.6033 23.24 95.0567 23.12 94.55 22.88C94.0433 22.64 93.63 22.3 93.31 21.86C93.0033 21.4067 92.85 20.8733 92.85 20.26C92.85 19.5267 93.03 18.9267 93.39 18.46C93.75 17.9933 94.2433 17.6467 94.87 17.42C95.51 17.1933 96.2233 17.08 97.01 17.08H99.37C99.37 16.6267 99.2967 16.2467 99.15 15.94C99.0167 15.6333 98.81 15.4 98.53 15.24C98.2633 15.0667 97.93 14.98 97.53 14.98C97.0633 14.98 96.6433 15.0867 96.27 15.3C95.91 15.5 95.69 15.84 95.61 16.32H93.05C93.1167 15.6 93.3633 14.98 93.79 14.46C94.2167 13.94 94.7633 13.54 95.43 13.26C96.0967 12.98 96.81 12.84 97.57 12.84C98.5033 12.84 99.29 13.0133 99.93 13.36C100.583 13.7067 101.083 14.2 101.43 14.84C101.777 15.4667 101.95 16.2133 101.95 17.08V20.1C101.977 20.3933 102.083 20.5933 102.27 20.7C102.457 20.8067 102.703 20.86 103.01 20.86V23C102.383 23 101.857 22.94 101.43 22.82C101.017 22.7 100.677 22.5267 100.41 22.3C100.143 22.06 99.9167 21.76 99.73 21.4C99.4233 21.92 98.9433 22.36 98.29 22.72C97.65 23.0667 96.95 23.24 96.19 23.24ZM96.93 21.18C97.37 21.18 97.77 21.08 98.13 20.88C98.5033 20.68 98.8033 20.4 99.03 20.04C99.2567 19.68 99.37 19.2667 99.37 18.8V18.72H97.17C96.8767 18.72 96.5967 18.7667 96.33 18.86C96.0633 18.94 95.85 19.0733 95.69 19.26C95.53 19.4333 95.45 19.6733 95.45 19.98C95.45 20.3933 95.59 20.7 95.87 20.9C96.1633 21.0867 96.5167 21.18 96.93 21.18Z" fill="#EFEEEA"/>
</g>
<defs>
<clipPath id="clip0_94_1021">
<rect width="103" height="32" fill="white" transform="translate(0.5)"/>
</clipPath>
<clipPath id="clip1_94_1021">
<rect width="18.6108" height="27.6503" fill="white" transform="translate(8.81348 2.34973)"/>
</clipPath>
</defs>
</svg>
