<svg width="107" height="32" viewBox="0 0 107 32" fill="none" xmlns="http://www.w3.org/2000/svg">
<g clip-path="url(#clip0_94_1011)">
<g clip-path="url(#clip1_94_1011)">
<g clip-path="url(#clip2_94_1011)">
<path d="M13.7495 2.00012L0.500244 15.1964L4.60114 19.2809L21.9514 2.00012H13.7495Z" fill="#EFEEEA"/>
<path d="M13.6573 14.1694L6.56323 21.2351L10.6795 25.3962L14.7729 21.3193L21.9515 14.1694H13.6573Z" fill="#EFEEEA"/>
<path d="M10.6794 25.3963L13.7956 28.5H21.9513L14.7727 21.3193L10.6794 25.3963Z" fill="#EFEEEA"/>
<path d="M6.51685 21.281L10.6178 17.1964L14.7726 21.3193L10.6793 25.3962L6.51685 21.281Z" fill="#EFEEEA"/>
<path d="M10.6794 25.3963L14.0879 24.2698L14.4264 21.6642L10.6794 25.3963Z" fill="#EFEEEA"/>
</g>
</g>
<path d="M49.78 23V9H58.6V11.18H52.34V14.68H57.82V16.86H52.34V23H49.78ZM60.0445 23V9H62.6045V23H60.0445ZM68.2995 23.24C67.4462 23.24 66.7195 23.06 66.1195 22.7C65.5195 22.3267 65.0595 21.82 64.7395 21.18C64.4195 20.5267 64.2595 19.7867 64.2595 18.96V13.08H66.7995V18.58C66.7995 19.3133 66.9862 19.9133 67.3595 20.38C67.7462 20.8467 68.3062 21.08 69.0395 21.08C69.7995 21.08 70.3662 20.8533 70.7395 20.4C71.1129 19.9467 71.2995 19.34 71.2995 18.58V13.08H73.8595V23H71.2995V21.84C70.9662 22.2933 70.5262 22.64 69.9795 22.88C69.4462 23.12 68.8862 23.24 68.2995 23.24ZM79.55 23C78.4833 23 77.6767 22.74 77.13 22.22C76.5967 21.7 76.33 20.92 76.33 19.88V15.22H75.05V13.08H76.33V10.66H78.89V13.08H81.15V15.22H78.89V19.9C78.89 20.2733 78.99 20.5267 79.19 20.66C79.39 20.7933 79.65 20.86 79.97 20.86H81.15V23H79.55ZM86.5617 23C85.4951 23 84.6884 22.74 84.1417 22.22C83.6084 21.7 83.3417 20.92 83.3417 19.88V15.22H82.0617V13.08H83.3417V10.66H85.9017V13.08H88.1617V15.22H85.9017V19.9C85.9017 20.2733 86.0017 20.5267 86.2017 20.66C86.4017 20.7933 86.6617 20.86 86.9817 20.86H88.1617V23H86.5617ZM94.1595 23.24C93.1195 23.24 92.2195 23.0133 91.4595 22.56C90.7129 22.1067 90.1329 21.4867 89.7195 20.7C89.3062 19.9133 89.0995 19.0267 89.0995 18.04C89.0995 16.9867 89.3129 16.0733 89.7395 15.3C90.1662 14.5267 90.7595 13.9267 91.5195 13.5C92.2795 13.06 93.1595 12.84 94.1595 12.84C95.1462 12.84 96.0062 13.0533 96.7395 13.48C97.4862 13.9067 98.0662 14.4933 98.4795 15.24C98.9062 15.9867 99.1195 16.8467 99.1195 17.82C99.1195 17.9933 99.1129 18.1667 99.0995 18.34C99.0862 18.5 99.0662 18.6533 99.0395 18.8H91.6795C91.7195 19.2667 91.8395 19.68 92.0395 20.04C92.2529 20.3867 92.5329 20.66 92.8795 20.86C93.2395 21.0467 93.6462 21.14 94.0995 21.14C94.5662 21.14 94.9662 21.04 95.2995 20.84C95.6462 20.64 95.9195 20.3333 96.1195 19.92H98.8595C98.6729 20.5067 98.3729 21.0533 97.9595 21.56C97.5462 22.0667 97.0195 22.4733 96.3795 22.78C95.7529 23.0867 95.0129 23.24 94.1595 23.24ZM91.6995 17.1H96.4795C96.4662 16.4333 96.2195 15.9067 95.7395 15.52C95.2729 15.1333 94.7195 14.94 94.0795 14.94C93.5329 14.94 93.0262 15.1133 92.5595 15.46C92.0929 15.7933 91.8062 16.34 91.6995 17.1ZM100.474 23V13.08H103.014V14.56C103.361 14 103.801 13.5733 104.334 13.28C104.868 12.9867 105.461 12.84 106.114 12.84V15.52H105.434C104.621 15.52 104.014 15.7133 103.614 16.1C103.214 16.4867 103.014 17.1333 103.014 18.04V23H100.474Z" fill="#EFEEEA"/>
</g>
<defs>
<clipPath id="clip0_94_1011">
<rect width="106" height="32" fill="white" transform="translate(0.5)"/>
</clipPath>
<clipPath id="clip1_94_1011">
<rect width="28" height="28" fill="white" transform="translate(0.5 2)"/>
</clipPath>
<clipPath id="clip2_94_1011">
<rect width="26.5" height="26.5" fill="white" transform="translate(0.5 2)"/>
</clipPath>
</defs>
</svg>
