<svg width="144" height="32" viewBox="0 0 144 32" fill="none" xmlns="http://www.w3.org/2000/svg">
<g clip-path="url(#clip0_94_1005)">
<g clip-path="url(#clip1_94_1005)">
<path fill-rule="evenodd" clip-rule="evenodd" d="M25.984 2.26733C26.8237 2.26733 27.6006 2.72181 27.9945 3.45981C28.3711 4.16751 28.356 5.00073 27.9534 5.69328L27.9404 5.71709L24.4084 11.6254C24.008 12.2942 23.2874 12.7097 22.5169 12.7183H22.4909H18.4568L20.1341 16.5555L20.1406 16.5663L20.1514 16.5836C20.5453 17.2978 20.5366 18.1462 20.1276 18.8474L20.1146 18.8712L16.5826 24.7795C16.1822 25.4483 15.4615 25.8638 14.6911 25.8725H14.6651H9.71554L6.15757 29.6252L6.15108 29.6317C5.81562 29.9715 5.3633 30.1619 4.8915 30.1619C4.77463 30.1619 4.6556 30.149 4.53873 30.1251C3.96305 30.0083 3.48476 29.6122 3.25535 29.069L3.24886 29.0539L1.37681 24.7557L1.36599 24.7384L1.35517 24.7211C1.35517 24.7211 1.35084 24.7146 1.35084 24.7124C0.956952 23.9982 0.965609 23.1499 1.37465 22.4487L1.38763 22.4249L4.81359 16.694L2.29011 10.9155L2.33556 10.8917V10.8874C2.22735 10.355 2.31392 9.80097 2.58877 9.31619L2.60392 9.29022L2.61691 9.26641L6.14891 3.35809C6.54929 2.68935 7.26998 2.27382 8.04044 2.263H25.9861L25.984 2.26733ZM7.43879 25.8292H3.68603L4.78762 28.3786V28.3851C4.80926 28.4306 4.8374 28.4565 4.88284 28.4652C4.9218 28.4739 4.95426 28.4652 4.98456 28.4371L4.98889 28.4327L7.43879 25.8292ZM18.1647 17.0641H6.82198C6.809 17.0641 6.79601 17.0641 6.78519 17.0641H6.78086L9.89085 24.1779H14.6629C14.8599 24.1779 15.0482 24.0718 15.1564 23.9052L15.165 23.8922L18.7014 17.9796C18.8074 17.8043 18.8182 17.5987 18.736 17.4147C18.6386 17.2026 18.4157 17.0641 18.1668 17.0641H18.1647ZM5.64249 18.5249L2.83549 23.2559C2.72295 23.4442 2.71646 23.665 2.81818 23.8597L2.829 23.8792L2.83549 23.8879L2.84632 23.9074L2.86796 23.9398L2.89393 23.9723L2.91774 24.0004L2.92206 24.0047L2.93721 24.0221L2.95236 24.035C3.0411 24.1151 3.14931 24.1649 3.2705 24.1757H3.29647L3.31162 24.1779H3.3311H8.09454L5.64249 18.5228V18.5249ZM4.90449 12.7292L6.13809 15.5578L6.1619 15.5491C6.37399 15.4777 6.59691 15.4388 6.82198 15.4366H6.85661H17.853L16.6735 12.7313H4.90665L4.90449 12.7292ZM25.9515 3.91646H14.5677L17.6799 11.0324H22.4498C22.6467 11.0324 22.835 10.9264 22.9432 10.7576L22.9519 10.7446L26.4882 4.83193C26.5943 4.65662 26.6051 4.45102 26.5229 4.26707C26.4276 4.0593 26.2112 3.92079 25.9688 3.9143H25.9537L25.9515 3.91646ZM12.8255 3.91646H8.08156C7.88678 3.91646 7.69849 4.02034 7.59028 4.18915L7.58162 4.20214L4.05395 10.1148C3.9479 10.2922 3.93708 10.4957 4.02149 10.6796C4.11455 10.8874 4.33097 11.0259 4.5712 11.0303H4.58635H15.9269L12.8234 3.9143L12.8255 3.91646Z" fill="#EFEEEA"/>
</g>
<path d="M49.78 23V9H58.6V11.18H52.34V14.68H57.82V16.86H52.34V23H49.78ZM60.0445 23V9H62.6045V23H60.0445ZM68.2995 23.24C67.4462 23.24 66.7195 23.06 66.1195 22.7C65.5195 22.3267 65.0595 21.82 64.7395 21.18C64.4195 20.5267 64.2595 19.7867 64.2595 18.96V13.08H66.7995V18.58C66.7995 19.3133 66.9862 19.9133 67.3595 20.38C67.7462 20.8467 68.3062 21.08 69.0395 21.08C69.7995 21.08 70.3662 20.8533 70.7395 20.4C71.1129 19.9467 71.2995 19.34 71.2995 18.58V13.08H73.8595V23H71.2995V21.84C70.9662 22.2933 70.5262 22.64 69.9795 22.88C69.4462 23.12 68.8862 23.24 68.2995 23.24ZM79.55 23C78.4833 23 77.6767 22.74 77.13 22.22C76.5967 21.7 76.33 20.92 76.33 19.88V15.22H75.05V13.08H76.33V10.66H78.89V13.08H81.15V15.22H78.89V19.9C78.89 20.2733 78.99 20.5267 79.19 20.66C79.39 20.7933 79.65 20.86 79.97 20.86H81.15V23H79.55ZM86.5617 23C85.4951 23 84.6884 22.74 84.1417 22.22C83.6084 21.7 83.3417 20.92 83.3417 19.88V15.22H82.0617V13.08H83.3417V10.66H85.9017V13.08H88.1617V15.22H85.9017V19.9C85.9017 20.2733 86.0017 20.5267 86.2017 20.66C86.4017 20.7933 86.6617 20.86 86.9817 20.86H88.1617V23H86.5617ZM94.1595 23.24C93.1195 23.24 92.2195 23.0133 91.4595 22.56C90.7129 22.1067 90.1329 21.4867 89.7195 20.7C89.3062 19.9133 89.0995 19.0267 89.0995 18.04C89.0995 16.9867 89.3129 16.0733 89.7395 15.3C90.1662 14.5267 90.7595 13.9267 91.5195 13.5C92.2795 13.06 93.1595 12.84 94.1595 12.84C95.1462 12.84 96.0062 13.0533 96.7395 13.48C97.4862 13.9067 98.0662 14.4933 98.4795 15.24C98.9062 15.9867 99.1195 16.8467 99.1195 17.82C99.1195 17.9933 99.1129 18.1667 99.0995 18.34C99.0862 18.5 99.0662 18.6533 99.0395 18.8H91.6795C91.7195 19.2667 91.8395 19.68 92.0395 20.04C92.2529 20.3867 92.5329 20.66 92.8795 20.86C93.2395 21.0467 93.6462 21.14 94.0995 21.14C94.5662 21.14 94.9662 21.04 95.2995 20.84C95.6462 20.64 95.9195 20.3333 96.1195 19.92H98.8595C98.6729 20.5067 98.3729 21.0533 97.9595 21.56C97.5462 22.0667 97.0195 22.4733 96.3795 22.78C95.7529 23.0867 95.0129 23.24 94.1595 23.24ZM91.6995 17.1H96.4795C96.4662 16.4333 96.2195 15.9067 95.7395 15.52C95.2729 15.1333 94.7195 14.94 94.0795 14.94C93.5329 14.94 93.0262 15.1133 92.5595 15.46C92.0929 15.7933 91.8062 16.34 91.6995 17.1ZM100.474 23V13.08H103.014V14.56C103.361 14 103.801 13.5733 104.334 13.28C104.868 12.9867 105.461 12.84 106.114 12.84V15.52H105.434C104.621 15.52 104.014 15.7133 103.614 16.1C103.214 16.4867 103.014 17.1333 103.014 18.04V23H100.474ZM107.57 23V15.22H106.41V13.08H107.57V12.32C107.57 11.12 107.87 10.2667 108.47 9.76C109.083 9.25333 109.91 9 110.95 9H111.79V11.18H111.35C110.91 11.18 110.597 11.2667 110.41 11.44C110.223 11.6133 110.13 11.9067 110.13 12.32V13.08H111.91V15.22H110.13V23H107.57ZM113.47 23V9H116.03V23H113.47ZM122.599 23.24C121.599 23.24 120.706 23.0267 119.919 22.6C119.146 22.16 118.539 21.5467 118.099 20.76C117.659 19.9733 117.439 19.0667 117.439 18.04C117.439 16.96 117.673 16.0333 118.139 15.26C118.619 14.4733 119.253 13.8733 120.039 13.46C120.839 13.0467 121.719 12.84 122.679 12.84C123.679 12.84 124.573 13.06 125.359 13.5C126.146 13.9267 126.766 14.5267 127.219 15.3C127.686 16.0733 127.919 16.9867 127.919 18.04C127.919 19.04 127.693 19.9333 127.239 20.72C126.786 21.5067 126.159 22.1267 125.359 22.58C124.573 23.02 123.653 23.24 122.599 23.24ZM122.639 21.02C123.173 21.02 123.633 20.8867 124.019 20.62C124.419 20.34 124.733 19.9733 124.959 19.52C125.186 19.0533 125.299 18.5467 125.299 18C125.299 17.3733 125.173 16.84 124.919 16.4C124.679 15.96 124.359 15.6267 123.959 15.4C123.559 15.1733 123.119 15.06 122.639 15.06C122.119 15.06 121.659 15.1867 121.259 15.44C120.873 15.6933 120.566 16.0467 120.339 16.5C120.126 16.94 120.019 17.4533 120.019 18.04C120.019 18.6267 120.133 19.1467 120.359 19.6C120.599 20.0533 120.919 20.4067 121.319 20.66C121.719 20.9 122.159 21.02 122.639 21.02ZM131.048 23L128.088 13.08H130.668L132.448 20.62L134.368 13.08H137.068L138.948 20.6L140.728 13.08H143.168L140.228 22.98H137.488L135.648 16.06L133.808 23H131.048Z" fill="#EFEEEA"/>
</g>
<defs>
<clipPath id="clip0_94_1005">
<rect width="143" height="32" fill="white" transform="translate(0.5)"/>
</clipPath>
<clipPath id="clip1_94_1005">
<rect width="28" height="28" fill="white" transform="translate(0.5 2)"/>
</clipPath>
</defs>
</svg>
