<svg width="98" height="32" viewBox="0 0 98 32" fill="none" xmlns="http://www.w3.org/2000/svg">
<g clip-path="url(#clip0_94_985)">
<g clip-path="url(#clip1_94_985)">
<g clip-path="url(#clip2_94_985)">
<mask id="mask0_94_985" style="mask-type:luminance" maskUnits="userSpaceOnUse" x="21" y="6" width="7" height="20">
<path d="M22.1055 6.84705H26.7966C27.1538 6.84705 27.4446 7.13782 27.4446 7.49505V24.8124C27.4446 25.1697 27.1538 25.4604 26.7966 25.4604H22.1055C21.7483 25.4604 21.4575 25.1697 21.4575 24.8124V7.49505C21.4575 7.13782 21.7483 6.84705 22.1055 6.84705Z" fill="white"/>
</mask>
<g mask="url(#mask0_94_985)">
<path d="M26.7292 4.9031L15.4165 9.07434L22.1749 27.4036L33.4876 23.2324L26.7292 4.9031Z" fill="#EFEEEA"/>
</g>
<mask id="mask1_94_985" style="mask-type:luminance" maskUnits="userSpaceOnUse" x="0" y="6" width="14" height="20">
<path d="M8.34512 7.07555L0.569124 22.5486C0.408509 22.8685 0.537278 23.2576 0.857124 23.4182L5.04836 25.5242C5.3682 25.6848 5.75728 25.556 5.91789 25.2362L13.6939 9.76309C13.8545 9.44325 13.7257 9.05417 13.4059 8.89355L9.21466 6.78755C9.12051 6.74048 9.0222 6.71832 8.92389 6.71832C8.68712 6.71832 8.45866 6.84848 8.34512 7.07555Z" fill="white"/>
</mask>
<g mask="url(#mask1_94_985)">
<path d="M11.7372 1.82176L-6.50195 9.70697L2.52447 30.5858L20.7636 22.7006L11.7372 1.82176Z" fill="#EFEEEA"/>
</g>
<mask id="mask2_94_985" style="mask-type:luminance" maskUnits="userSpaceOnUse" x="11" y="6" width="10" height="20">
<path d="M14.886 7.13095L11.5588 23.9969C11.4896 24.3473 11.7167 24.6865 12.067 24.7571L16.6653 25.6848C17.017 25.7554 17.3603 25.5269 17.4296 25.1753L20.7568 8.30926C20.826 7.95895 20.599 7.61972 20.2487 7.5491L15.6503 6.62141C15.6074 6.6131 15.5645 6.60895 15.5216 6.60895C15.2183 6.60895 14.947 6.82218 14.886 7.13095Z" fill="white"/>
</mask>
<g mask="url(#mask2_94_985)">
<path d="M19.7112 3.58247L5.28174 8.89435L12.604 28.7851L27.0335 23.4732L19.7112 3.58247Z" fill="#EFEEEA"/>
</g>
</g>
</g>
<path d="M49.78 23V9H52.82L56.8 18.04L60.72 9H63.76V23H61.2V13.56L57.78 21.22H55.76L52.34 13.56V23H49.78ZM68.7877 23.24C68.201 23.24 67.6543 23.12 67.1477 22.88C66.641 22.64 66.2277 22.3 65.9077 21.86C65.601 21.4067 65.4477 20.8733 65.4477 20.26C65.4477 19.5267 65.6277 18.9267 65.9877 18.46C66.3477 17.9933 66.841 17.6467 67.4677 17.42C68.1077 17.1933 68.821 17.08 69.6077 17.08H71.9677C71.9677 16.6267 71.8943 16.2467 71.7477 15.94C71.6143 15.6333 71.4077 15.4 71.1277 15.24C70.861 15.0667 70.5277 14.98 70.1277 14.98C69.661 14.98 69.241 15.0867 68.8677 15.3C68.5077 15.5 68.2877 15.84 68.2077 16.32H65.6477C65.7143 15.6 65.961 14.98 66.3877 14.46C66.8143 13.94 67.361 13.54 68.0277 13.26C68.6943 12.98 69.4077 12.84 70.1677 12.84C71.101 12.84 71.8877 13.0133 72.5277 13.36C73.181 13.7067 73.681 14.2 74.0277 14.84C74.3743 15.4667 74.5477 16.2133 74.5477 17.08V20.1C74.5743 20.3933 74.681 20.5933 74.8677 20.7C75.0543 20.8067 75.301 20.86 75.6077 20.86V23C74.981 23 74.4543 22.94 74.0277 22.82C73.6143 22.7 73.2743 22.5267 73.0077 22.3C72.741 22.06 72.5143 21.76 72.3277 21.4C72.021 21.92 71.541 22.36 70.8877 22.72C70.2477 23.0667 69.5477 23.24 68.7877 23.24ZM69.5277 21.18C69.9677 21.18 70.3677 21.08 70.7277 20.88C71.101 20.68 71.401 20.4 71.6277 20.04C71.8543 19.68 71.9677 19.2667 71.9677 18.8V18.72H69.7677C69.4743 18.72 69.1943 18.7667 68.9277 18.86C68.661 18.94 68.4477 19.0733 68.2877 19.26C68.1277 19.4333 68.0477 19.6733 68.0477 19.98C68.0477 20.3933 68.1877 20.7 68.4677 20.9C68.761 21.0867 69.1143 21.18 69.5277 21.18ZM76.8414 23V9H79.4014V17.28L82.7014 13.08H86.0014L81.6414 18.06L86.0614 23H82.7614L79.4014 18.78V23H76.8414ZM91.2298 23.24C90.1898 23.24 89.2898 23.0133 88.5298 22.56C87.7832 22.1067 87.2032 21.4867 86.7898 20.7C86.3765 19.9133 86.1698 19.0267 86.1698 18.04C86.1698 16.9867 86.3832 16.0733 86.8098 15.3C87.2365 14.5267 87.8298 13.9267 88.5898 13.5C89.3498 13.06 90.2298 12.84 91.2298 12.84C92.2165 12.84 93.0765 13.0533 93.8098 13.48C94.5565 13.9067 95.1365 14.4933 95.5498 15.24C95.9765 15.9867 96.1898 16.8467 96.1898 17.82C96.1898 17.9933 96.1832 18.1667 96.1698 18.34C96.1565 18.5 96.1365 18.6533 96.1098 18.8H88.7498C88.7898 19.2667 88.9098 19.68 89.1098 20.04C89.3232 20.3867 89.6032 20.66 89.9498 20.86C90.3098 21.0467 90.7165 21.14 91.1698 21.14C91.6365 21.14 92.0365 21.04 92.3698 20.84C92.7165 20.64 92.9898 20.3333 93.1898 19.92H95.9298C95.7432 20.5067 95.4432 21.0533 95.0298 21.56C94.6165 22.0667 94.0898 22.4733 93.4498 22.78C92.8232 23.0867 92.0832 23.24 91.2298 23.24ZM88.7698 17.1H93.5498C93.5365 16.4333 93.2898 15.9067 92.8098 15.52C92.3432 15.1333 91.7898 14.94 91.1498 14.94C90.6032 14.94 90.0965 15.1133 89.6298 15.46C89.1632 15.7933 88.8765 16.34 88.7698 17.1Z" fill="#EFEEEA"/>
</g>
<defs>
<clipPath id="clip0_94_985">
<rect width="97" height="32" fill="white" transform="translate(0.5)"/>
</clipPath>
<clipPath id="clip1_94_985">
<rect width="28" height="28" fill="white" transform="translate(0.5 2)"/>
</clipPath>
<clipPath id="clip2_94_985">
<rect width="28" height="28" fill="white" transform="translate(0.5 2)"/>
</clipPath>
</defs>
</svg>
