<svg width="113" height="32" viewBox="0 0 113 32" fill="none" xmlns="http://www.w3.org/2000/svg">
<g clip-path="url(#clip0_94_975)">
<g clip-path="url(#clip1_94_975)">
<path d="M2 15.787C2.01042 15.7526 2.01875 15.7172 2.02344 15.6818C2.04271 15.3187 2.04688 14.9516 2.08594 14.588C2.14688 13.4109 2.53958 12.2755 3.21875 11.312C3.52491 10.8976 3.92403 10.5609 4.38401 10.3289C4.84399 10.0969 5.352 9.976 5.86719 9.97604H14.2969C14.4609 9.97604 14.4609 9.97604 14.4609 9.81198V9.22604C14.4609 9.10521 14.4255 9.07812 14.3125 9.07812H8.57448C8.47656 9.07812 8.44167 9.05052 8.44167 8.94896V6.08646C8.46042 5.67187 8.63333 5.27917 8.92604 4.98489C9.31477 4.57116 9.7988 4.25878 10.3359 4.075C10.9919 3.83915 11.6739 3.68316 12.3672 3.61042C13.3149 3.50221 14.2699 3.47347 15.2224 3.52448C16.2495 3.54375 17.2656 3.73229 18.2307 4.08281C18.8927 4.30607 19.4778 4.7124 19.9182 5.25469C20.2723 5.71034 20.4474 6.27985 20.4104 6.85573C20.387 7.3401 20.4104 7.82812 20.4104 8.31614V11.0193C20.4104 11.55 20.4104 12.0849 20.387 12.612C20.3832 13.1836 20.206 13.7405 19.8788 14.2093C19.5516 14.678 19.0899 15.0363 18.5547 15.237C18.0354 15.4496 17.4788 15.5557 16.9177 15.549H10.949C10.3178 15.5369 9.6957 15.7004 9.15208 16.0214C8.4569 16.4583 7.96165 17.1513 7.77344 17.9505C7.66017 18.3534 7.60355 18.7701 7.60521 19.1885V21.8948C7.60521 22.0745 7.60521 22.0708 7.42552 22.0745C6.77708 22.0745 6.12865 22.0943 5.4724 22.0745C4.83015 22.0486 4.21756 21.7972 3.74219 21.3646C3.18959 20.862 2.7776 20.224 2.54688 19.5135C2.31303 18.8677 2.16455 18.1942 2.10521 17.5099C2.06615 17.0724 2.05052 16.6349 2.02344 16.2016C2.01836 16.1531 2.01053 16.1049 2 16.0573V15.787Z" fill="#EFEEEA"/>
<path d="M9.91821 6.48857C9.91976 6.70528 9.98543 6.91667 10.1069 7.09611C10.2285 7.27554 10.4004 7.41498 10.601 7.49684C10.8017 7.57871 11.0221 7.59933 11.2344 7.55611C11.4468 7.51288 11.6416 7.40776 11.7943 7.25398C11.947 7.1002 12.0507 6.90465 12.0925 6.69199C12.1342 6.47933 12.112 6.25909 12.0287 6.05902C11.9454 5.85895 11.8048 5.68802 11.6245 5.56778C11.4442 5.44754 11.2323 5.38337 11.0156 5.38336C10.7239 5.38556 10.4449 5.50295 10.2393 5.70997C10.0338 5.91698 9.91834 6.19684 9.91821 6.48857Z" fill="#EFEEEA"/>
<path d="M9.91821 6.48861C9.91821 6.34429 9.94664 6.20139 10.0019 6.06805C10.0571 5.93472 10.138 5.81357 10.2401 5.71153C10.3421 5.60948 10.4633 5.52853 10.5966 5.4733C10.7299 5.41807 10.8729 5.38965 11.0172 5.38965C11.1615 5.38965 11.3044 5.41807 11.4377 5.4733C11.5711 5.52853 11.6922 5.60948 11.7943 5.71153C11.8963 5.81357 11.9772 5.93472 12.0325 6.06805C12.0877 6.20139 12.1161 6.34429 12.1161 6.48861C12.1161 6.78007 12.0003 7.05959 11.7943 7.26569C11.5882 7.47178 11.3086 7.58757 11.0172 7.58757C10.7257 7.58757 10.4462 7.47178 10.2401 7.26569C10.034 7.05959 9.91821 6.78007 9.91821 6.48861Z" fill="#EFEEEA"/>
<path d="M27 16.2088C26.9896 16.2432 26.9812 16.2786 26.9765 16.3145C26.9573 16.6775 26.9531 17.0447 26.914 17.4083C26.853 18.5853 26.4603 19.721 25.7812 20.6843C25.4754 21.0993 25.0765 21.4367 24.6165 21.6694C24.1565 21.9021 23.6483 22.0235 23.1328 22.0239H14.7031C14.539 22.0239 14.539 22.0239 14.539 22.188V22.7739C14.539 22.8947 14.5745 22.9223 14.6875 22.9223H20.426C20.5234 22.9223 20.5588 22.9494 20.5588 23.051V25.9135C20.5397 26.3281 20.3671 26.7207 20.0745 27.015C19.6856 27.4288 19.2014 27.7412 18.664 27.9249C18.0094 28.1605 17.3288 28.3164 16.637 28.3895C15.689 28.4978 14.7338 28.5265 13.7812 28.4754C12.7547 28.4564 11.7384 28.2678 10.7734 27.9171C10.1114 27.6939 9.52633 27.2875 9.08591 26.7452C8.73182 26.2896 8.55675 25.7201 8.59373 25.1442C8.61716 24.6598 8.59373 24.1718 8.59373 23.6838V20.9807C8.59373 20.4499 8.59373 19.915 8.61716 19.388C8.62085 18.8164 8.79795 18.2594 9.12503 17.7907C9.45211 17.322 9.91376 16.9636 10.4489 16.763C10.9682 16.5504 11.5249 16.4443 12.0859 16.451H18.051C18.6822 16.4631 19.3043 16.2995 19.8479 15.9786C20.5439 15.5406 21.0393 14.846 21.2265 14.0452C21.3398 13.6424 21.3964 13.2257 21.3948 12.8072V10.101C21.3948 9.92128 21.3948 9.92545 21.5745 9.92128C22.2229 9.92128 22.8713 9.90201 23.5276 9.92128C24.17 9.94749 24.7826 10.1992 25.2578 10.6322C25.8104 11.1348 26.2223 11.7728 26.4531 12.4833C26.6861 13.1316 26.8332 13.8077 26.8906 14.4942C26.9297 14.9317 26.9453 15.3692 26.9729 15.8025C26.9781 15.8499 26.9859 15.8968 26.9963 15.9432C26.9989 16.0291 27 16.1176 27 16.2088Z" fill="#EFEEEA"/>
<path d="M19.0817 25.3708C19.0802 25.1541 19.0145 24.9427 18.893 24.7633C18.7715 24.5839 18.5996 24.4444 18.3989 24.3626C18.1982 24.2807 17.9778 24.2601 17.7655 24.3033C17.5531 24.3465 17.3583 24.4516 17.2056 24.6054C17.0529 24.7592 16.9492 24.9548 16.9075 25.1674C16.8658 25.3801 16.888 25.6003 16.9712 25.8004C17.0545 26.0005 17.1952 26.1714 17.3755 26.2916C17.5558 26.4119 17.7676 26.476 17.9843 26.476C18.2761 26.4738 18.5551 26.3565 18.7606 26.1494C18.9662 25.9424 19.0816 25.6626 19.0817 25.3708Z" fill="#EFEEEA"/>
<path d="M19.0817 25.3709C19.0817 25.6623 18.9659 25.9419 18.7598 26.148C18.5537 26.354 18.2742 26.4698 17.9827 26.4698C17.6913 26.4698 17.4118 26.354 17.2057 26.148C16.9996 25.9419 16.8838 25.6623 16.8838 25.3709C16.8838 25.0794 16.9996 24.7999 17.2057 24.5938C17.4118 24.3877 17.6913 24.2719 17.9827 24.2719C18.2742 24.2719 18.5537 24.3877 18.7598 24.5938C18.9659 24.7999 19.0817 25.0794 19.0817 25.3709Z" fill="#EFEEEA"/>
</g>
<path d="M49.78 23V9H54.96C55.9333 9 56.7867 9.16667 57.52 9.5C58.2667 9.82 58.8533 10.2933 59.28 10.92C59.7067 11.5467 59.92 12.3067 59.92 13.2C59.92 14.0933 59.7067 14.86 59.28 15.5C58.8533 16.1267 58.2667 16.6067 57.52 16.94C56.7867 17.26 55.9333 17.42 54.96 17.42H52.34V23H49.78ZM52.34 15.24H54.9C55.7933 15.24 56.42 15.0533 56.78 14.68C57.14 14.2933 57.32 13.8 57.32 13.2C57.32 12.6133 57.14 12.1333 56.78 11.76C56.42 11.3733 55.7933 11.18 54.9 11.18H52.34V15.24ZM62.2927 27.4L64.4727 22.54L60.4527 13.08H63.3127L65.8727 19.84L68.4927 13.08H71.1927L64.9927 27.4H62.2927ZM75.9758 23C74.9091 23 74.1024 22.74 73.5558 22.22C73.0224 21.7 72.7558 20.92 72.7558 19.88V15.22H71.4758V13.08H72.7558V10.66H75.3158V13.08H77.5758V15.22H75.3158V19.9C75.3158 20.2733 75.4158 20.5267 75.6158 20.66C75.8158 20.7933 76.0758 20.86 76.3958 20.86H77.5758V23H75.9758ZM79.0875 23V9H81.6275V14.24C81.9742 13.7733 82.4342 13.4267 83.0075 13.2C83.5942 12.96 84.1808 12.84 84.7675 12.84C85.9142 12.84 86.8542 13.2133 87.5875 13.96C88.3208 14.6933 88.6875 15.76 88.6875 17.16V23H86.1475V17.5C86.1475 16.7533 85.9542 16.1533 85.5675 15.7C85.1942 15.2333 84.6408 15 83.9075 15C83.1742 15 82.6075 15.2333 82.2075 15.7C81.8208 16.1533 81.6275 16.7533 81.6275 17.5V23H79.0875ZM95.158 23.24C94.158 23.24 93.2646 23.0267 92.478 22.6C91.7046 22.16 91.098 21.5467 90.658 20.76C90.218 19.9733 89.998 19.0667 89.998 18.04C89.998 16.96 90.2313 16.0333 90.698 15.26C91.178 14.4733 91.8113 13.8733 92.598 13.46C93.398 13.0467 94.278 12.84 95.238 12.84C96.238 12.84 97.1313 13.06 97.918 13.5C98.7046 13.9267 99.3246 14.5267 99.778 15.3C100.245 16.0733 100.478 16.9867 100.478 18.04C100.478 19.04 100.251 19.9333 99.798 20.72C99.3446 21.5067 98.718 22.1267 97.918 22.58C97.1313 23.02 96.2113 23.24 95.158 23.24ZM95.198 21.02C95.7313 21.02 96.1913 20.8867 96.578 20.62C96.978 20.34 97.2913 19.9733 97.518 19.52C97.7446 19.0533 97.858 18.5467 97.858 18C97.858 17.3733 97.7313 16.84 97.478 16.4C97.238 15.96 96.918 15.6267 96.518 15.4C96.118 15.1733 95.678 15.06 95.198 15.06C94.678 15.06 94.218 15.1867 93.818 15.44C93.4313 15.6933 93.1246 16.0467 92.898 16.5C92.6846 16.94 92.578 17.4533 92.578 18.04C92.578 18.6267 92.6913 19.1467 92.918 19.6C93.158 20.0533 93.478 20.4067 93.878 20.66C94.278 20.9 94.718 21.02 95.198 21.02ZM101.959 23V13.08H104.499V14.24C104.845 13.7733 105.305 13.4267 105.879 13.2C106.465 12.96 107.052 12.84 107.639 12.84C108.785 12.84 109.725 13.2133 110.459 13.96C111.192 14.6933 111.559 15.76 111.559 17.16V23H109.019V17.5C109.019 16.7533 108.825 16.1533 108.439 15.7C108.065 15.2333 107.512 15 106.779 15C106.045 15 105.479 15.2333 105.079 15.7C104.692 16.1533 104.499 16.7533 104.499 17.5V23H101.959Z" fill="#EFEEEA"/>
</g>
<defs>
<clipPath id="clip0_94_975">
<rect width="112" height="32" fill="white" transform="translate(0.5)"/>
</clipPath>
<clipPath id="clip1_94_975">
<rect width="25" height="25" fill="white" transform="translate(2 3.5)"/>
</clipPath>
</defs>
</svg>
