<svg width="123" height="32" viewBox="0 0 123 32" fill="none" xmlns="http://www.w3.org/2000/svg">
<g clip-path="url(#clip0_94_972)">
<g clip-path="url(#clip1_94_972)">
<path d="M14.7628 18.2542C16.1163 18.2542 17.2136 17.157 17.2136 15.8034C17.2136 14.4499 16.1163 13.3527 14.7628 13.3527C13.4093 13.3527 12.312 14.4499 12.312 15.8034C12.312 17.157 13.4093 18.2542 14.7628 18.2542Z" fill="#EFEEEA"/>
<path d="M14.7629 21.4225C11.8172 21.4937 8.87889 21.0966 6.05776 20.2461C4.75456 19.833 3.53908 19.1822 2.47277 18.3266C2.06587 18.0344 1.72702 17.6575 1.47946 17.222C1.2319 16.7864 1.0815 16.3025 1.03857 15.8033C1.03857 14.1829 2.81882 12.5948 5.80092 11.5556C8.69747 10.6349 11.7239 10.1886 14.7629 10.2342C17.7614 10.1923 20.7473 10.6305 23.6073 11.5321C24.8623 11.9322 26.0366 12.5516 27.0756 13.3614C27.4755 13.64 27.8093 14.0032 28.0533 14.4252C28.2972 14.8472 28.4454 15.3177 28.4873 15.8033C28.4873 17.4875 26.4972 19.1942 23.2916 20.2549C20.5251 21.0778 17.6488 21.4715 14.7629 21.4225ZM14.7629 11.4066C11.8554 11.3678 8.96029 11.792 6.18618 12.6634C3.44131 13.6212 2.21102 14.9308 2.21102 15.8004C2.21102 16.7101 3.53346 18.1404 6.43714 19.1334C9.13601 19.943 11.9461 20.3199 14.7629 20.25C17.5239 20.2994 20.2761 19.9258 22.924 19.1423C25.9384 18.1433 27.3109 16.7111 27.3109 15.8033C27.2614 15.4918 27.1479 15.1939 26.9775 14.9285C26.8071 14.6631 26.5834 14.4359 26.3208 14.2613C25.3912 13.5429 24.3422 12.994 23.222 12.6399C20.486 11.7809 17.6303 11.3645 14.7629 11.4066Z" fill="#EFEEEA"/>
<path d="M9.19462 28.0265C8.7373 28.037 8.28539 27.9261 7.88493 27.705C6.48112 26.8952 5.99489 24.5601 6.58405 21.4575C7.23365 18.4882 8.3592 15.6435 9.91711 13.0337C11.3785 10.4153 13.2494 8.04771 15.4588 6.02052C16.4324 5.13305 17.5556 4.4251 18.7762 3.92952C19.2177 3.72261 19.6993 3.61536 20.1868 3.61536C20.6744 3.61536 21.156 3.72261 21.5975 3.92952C23.0572 4.77062 23.5405 7.34688 22.8592 10.6535C22.1895 13.4616 21.0932 16.1505 19.6085 18.6263C18.1985 21.2137 16.3865 23.5607 14.2403 25.5797C13.2313 26.5019 12.0604 27.2295 10.7866 27.7256C10.2767 27.9148 9.73846 28.0166 9.19462 28.0265ZM10.9327 13.616C9.44665 16.1151 8.36789 18.8348 7.7369 21.6731C7.19479 24.5307 7.71533 26.2492 8.47213 26.6864C9.25638 27.1403 11.1601 26.71 13.4717 24.6905C15.5206 22.7563 17.2501 20.5097 18.5958 18.0342C20.0182 15.6673 21.0698 13.0965 21.7142 10.4113C22.3553 7.29884 21.8014 5.39312 21.0152 4.94022C20.7205 4.82731 20.4056 4.77677 20.0904 4.79179C19.7752 4.8068 19.4666 4.88705 19.184 5.02746C18.0975 5.4758 17.0986 6.1123 16.2332 6.9077C14.1223 8.84948 12.3352 11.1161 10.9396 13.6218L10.9327 13.616Z" fill="#EFEEEA"/>
<path d="M20.328 28.0392C18.9997 28.0392 17.3126 27.2354 15.5559 25.7247C13.3077 23.6791 11.4052 21.2833 9.92203 18.6302C8.38366 16.0563 7.26703 13.2528 6.61446 10.326C6.33146 9.03834 6.27902 7.71071 6.45957 6.40475C6.50132 5.92029 6.64884 5.45089 6.89173 5.02964C7.13462 4.60839 7.46697 4.24556 7.86534 3.96672C9.32306 3.12268 11.7964 3.99025 14.3207 6.23124C16.4191 8.21361 18.2011 10.5061 19.6046 13.0287C21.142 15.5426 22.2703 18.2847 22.9474 21.1525C23.2426 22.4874 23.2881 23.8654 23.0817 25.2169C23.0326 25.7153 22.8763 26.1972 22.6235 26.6295C22.3707 27.0618 22.0274 27.4344 21.6171 27.7216C21.2232 27.9399 20.7783 28.0495 20.328 28.0392ZM10.9367 18.0401C12.3595 20.5756 14.1769 22.8684 16.3205 24.8326C18.5252 26.7295 20.2741 27.1373 21.026 26.6952C21.8102 26.2394 22.3886 24.3787 21.7926 21.3682C21.1396 18.6301 20.0573 16.0127 18.586 13.613C17.2467 11.1986 15.5458 9.00342 13.5423 7.10371C11.166 4.99409 9.23875 4.52256 8.45353 4.97742C8.20879 5.17631 8.00794 5.42378 7.86368 5.70421C7.71941 5.98464 7.63486 6.29194 7.61536 6.6067C7.4595 7.77139 7.51027 8.95445 7.76535 10.1015C8.39304 12.9004 9.46397 15.5811 10.9376 18.042L10.9367 18.0401Z" fill="#EFEEEA"/>
</g>
<path d="M49.78 23V9H54.64C55.6133 9 56.4533 9.16 57.16 9.48C57.88 9.78667 58.44 10.24 58.84 10.84C59.24 11.44 59.44 12.1733 59.44 13.04C59.44 14.04 59.1733 14.84 58.64 15.44C58.1067 16.04 57.38 16.4533 56.46 16.68L60.36 23H57.34L53.9 17.1H52.34V23H49.78ZM52.34 14.92H54.58C55.18 14.92 55.64 14.84 55.96 14.68C56.2933 14.5067 56.52 14.28 56.64 14C56.7733 13.72 56.84 13.4 56.84 13.04C56.84 12.68 56.7733 12.36 56.64 12.08C56.52 11.8 56.2933 11.58 55.96 11.42C55.64 11.26 55.18 11.18 54.58 11.18H52.34V14.92ZM65.3314 23.24C64.2914 23.24 63.3914 23.0133 62.6314 22.56C61.8847 22.1067 61.3047 21.4867 60.8914 20.7C60.4781 19.9133 60.2714 19.0267 60.2714 18.04C60.2714 16.9867 60.4847 16.0733 60.9114 15.3C61.3381 14.5267 61.9314 13.9267 62.6914 13.5C63.4514 13.06 64.3314 12.84 65.3314 12.84C66.3181 12.84 67.1781 13.0533 67.9114 13.48C68.6581 13.9067 69.2381 14.4933 69.6514 15.24C70.0781 15.9867 70.2914 16.8467 70.2914 17.82C70.2914 17.9933 70.2847 18.1667 70.2714 18.34C70.2581 18.5 70.2381 18.6533 70.2114 18.8H62.8514C62.8914 19.2667 63.0114 19.68 63.2114 20.04C63.4247 20.3867 63.7047 20.66 64.0514 20.86C64.4114 21.0467 64.8181 21.14 65.2714 21.14C65.7381 21.14 66.1381 21.04 66.4714 20.84C66.8181 20.64 67.0914 20.3333 67.2914 19.92H70.0314C69.8447 20.5067 69.5447 21.0533 69.1314 21.56C68.7181 22.0667 68.1914 22.4733 67.5514 22.78C66.9247 23.0867 66.1847 23.24 65.3314 23.24ZM62.8714 17.1H67.6514C67.6381 16.4333 67.3914 15.9067 66.9114 15.52C66.4447 15.1333 65.8914 14.94 65.2514 14.94C64.7047 14.94 64.1981 15.1133 63.7314 15.46C63.2647 15.7933 62.9781 16.34 62.8714 17.1ZM74.6861 23.24C74.0994 23.24 73.5528 23.12 73.0461 22.88C72.5394 22.64 72.1261 22.3 71.8061 21.86C71.4994 21.4067 71.3461 20.8733 71.3461 20.26C71.3461 19.5267 71.5261 18.9267 71.8861 18.46C72.2461 17.9933 72.7394 17.6467 73.3661 17.42C74.0061 17.1933 74.7194 17.08 75.5061 17.08H77.8661C77.8661 16.6267 77.7928 16.2467 77.6461 15.94C77.5128 15.6333 77.3061 15.4 77.0261 15.24C76.7594 15.0667 76.4261 14.98 76.0261 14.98C75.5594 14.98 75.1394 15.0867 74.7661 15.3C74.4061 15.5 74.1861 15.84 74.1061 16.32H71.5461C71.6128 15.6 71.8594 14.98 72.2861 14.46C72.7128 13.94 73.2594 13.54 73.9261 13.26C74.5928 12.98 75.3061 12.84 76.0661 12.84C76.9994 12.84 77.7861 13.0133 78.4261 13.36C79.0794 13.7067 79.5794 14.2 79.9261 14.84C80.2728 15.4667 80.4461 16.2133 80.4461 17.08V20.1C80.4728 20.3933 80.5794 20.5933 80.7661 20.7C80.9528 20.8067 81.1994 20.86 81.5061 20.86V23C80.8794 23 80.3528 22.94 79.9261 22.82C79.5128 22.7 79.1728 22.5267 78.9061 22.3C78.6394 22.06 78.4128 21.76 78.2261 21.4C77.9194 21.92 77.4394 22.36 76.7861 22.72C76.1461 23.0667 75.4461 23.24 74.6861 23.24ZM75.4261 21.18C75.8661 21.18 76.2661 21.08 76.6261 20.88C76.9994 20.68 77.2994 20.4 77.5261 20.04C77.7528 19.68 77.8661 19.2667 77.8661 18.8V18.72H75.6661C75.3728 18.72 75.0928 18.7667 74.8261 18.86C74.5594 18.94 74.3461 19.0733 74.1861 19.26C74.0261 19.4333 73.9461 19.6733 73.9461 19.98C73.9461 20.3933 74.0861 20.7 74.3661 20.9C74.6594 21.0867 75.0128 21.18 75.4261 21.18ZM87.2436 23.24C86.2436 23.24 85.3703 23.02 84.6236 22.58C83.8769 22.1267 83.2969 21.5133 82.8836 20.74C82.4703 19.9533 82.2636 19.0533 82.2636 18.04C82.2636 17.04 82.4636 16.1467 82.8636 15.36C83.2769 14.5733 83.8569 13.96 84.6036 13.52C85.3503 13.0667 86.2303 12.84 87.2436 12.84C88.4436 12.84 89.4569 13.14 90.2836 13.74C91.1236 14.34 91.6903 15.2267 91.9836 16.4H89.2436C89.1236 16.0133 88.8903 15.6867 88.5436 15.42C88.2103 15.14 87.7703 15 87.2236 15C86.6769 15 86.2303 15.14 85.8836 15.42C85.5369 15.7 85.2769 16.0733 85.1036 16.54C84.9436 16.9933 84.8636 17.4933 84.8636 18.04C84.8636 18.5867 84.9436 19.0933 85.1036 19.56C85.2769 20.0133 85.5369 20.38 85.8836 20.66C86.2303 20.9267 86.6769 21.06 87.2236 21.06C87.7436 21.06 88.1703 20.9467 88.5036 20.72C88.8369 20.48 89.0836 20.1333 89.2436 19.68H91.9836C91.8103 20.4267 91.4969 21.0667 91.0436 21.6C90.6036 22.1333 90.0569 22.54 89.4036 22.82C88.7636 23.1 88.0436 23.24 87.2436 23.24ZM97.2258 23C96.1591 23 95.3524 22.74 94.8058 22.22C94.2724 21.7 94.0058 20.92 94.0058 19.88V15.22H92.7258V13.08H94.0058V10.66H96.5658V13.08H98.8258V15.22H96.5658V19.9C96.5658 20.2733 96.6658 20.5267 96.8658 20.66C97.0658 20.7933 97.3258 20.86 97.6458 20.86H98.8258V23H97.2258ZM104.378 23.24C103.018 23.24 101.924 22.86 101.098 22.1C100.284 21.3267 99.8775 20.2333 99.8775 18.82H102.438C102.451 19.4733 102.604 19.9933 102.898 20.38C103.191 20.7667 103.664 20.96 104.318 20.96C104.931 20.96 105.378 20.78 105.658 20.42C105.938 20.0467 106.078 19.56 106.078 18.96V9H108.638V18.96C108.638 20.3333 108.251 21.3933 107.478 22.14C106.718 22.8733 105.684 23.24 104.378 23.24ZM115.986 23.24C115.012 23.24 114.126 23.0733 113.326 22.74C112.539 22.4067 111.912 21.9133 111.446 21.26C110.979 20.5933 110.732 19.7667 110.706 18.78H113.406C113.432 19.4333 113.666 19.98 114.106 20.42C114.559 20.86 115.179 21.08 115.966 21.08C116.646 21.08 117.186 20.92 117.586 20.6C117.986 20.28 118.186 19.8467 118.186 19.3C118.186 19.02 118.139 18.7733 118.046 18.56C117.966 18.3467 117.806 18.1467 117.566 17.96C117.326 17.7733 116.986 17.5933 116.546 17.42C116.119 17.2333 115.552 17.0267 114.846 16.8C113.926 16.4933 113.186 16.14 112.626 15.74C112.066 15.34 111.659 14.8933 111.406 14.4C111.166 13.8933 111.046 13.3467 111.046 12.76C111.046 11.88 111.252 11.1467 111.666 10.56C112.092 9.96 112.659 9.51333 113.366 9.22C114.086 8.91333 114.879 8.76 115.746 8.76C116.626 8.76 117.419 8.91333 118.126 9.22C118.846 9.52667 119.426 9.98 119.866 10.58C120.306 11.18 120.532 11.92 120.546 12.8H117.806C117.792 12.2933 117.592 11.8533 117.206 11.48C116.832 11.1067 116.312 10.92 115.646 10.92C115.112 10.92 114.659 11.06 114.286 11.34C113.912 11.62 113.726 12.0333 113.726 12.58C113.726 12.98 113.872 13.32 114.166 13.6C114.472 13.88 114.879 14.1267 115.386 14.34C115.906 14.54 116.479 14.7533 117.106 14.98C117.452 15.1 117.839 15.2533 118.266 15.44C118.706 15.6267 119.126 15.88 119.526 16.2C119.926 16.5067 120.252 16.9 120.506 17.38C120.772 17.8467 120.906 18.4267 120.906 19.12C120.906 19.9733 120.686 20.7067 120.246 21.32C119.819 21.9333 119.232 22.4067 118.486 22.74C117.752 23.0733 116.919 23.24 115.986 23.24Z" fill="#EFEEEA"/>
</g>
<defs>
<clipPath id="clip0_94_972">
<rect width="122" height="32" fill="white" transform="translate(0.5)"/>
</clipPath>
<clipPath id="clip1_94_972">
<rect width="28" height="28" fill="white" transform="translate(0.5 2)"/>
</clipPath>
</defs>
</svg>
