<svg width="127" height="32" viewBox="0 0 127 32" fill="none" xmlns="http://www.w3.org/2000/svg">
<g clip-path="url(#clip0_94_967)">
<g clip-path="url(#clip1_94_967)">
<path fill-rule="evenodd" clip-rule="evenodd" d="M28.1807 7.1333L19.3481 24.4H11.0518L14.7482 17.2439H14.5824C11.5329 21.2026 6.98296 23.8086 0.5 24.4V17.343C0.5 17.343 4.6473 17.098 7.08539 14.5347H0.5V7.13344H7.90127V13.2209L8.06739 13.2202L11.0918 7.13344H16.6892V13.1823L16.8553 13.182L19.9932 7.1333H28.1807Z" fill="#EFEEEA"/>
</g>
<path d="M53.72 23L48.86 9H51.48L55.26 20.58L56.76 15.9L54.34 9H56.92L58.48 13.9L60.02 9H62.62L60.18 15.9L61.68 20.58L65.46 9H68.08L63.22 23H60.18L58.48 17.92L56.76 23H53.72ZM72.0892 23.24C71.0492 23.24 70.1492 23.0133 69.3892 22.56C68.6426 22.1067 68.0626 21.4867 67.6492 20.7C67.2359 19.9133 67.0292 19.0267 67.0292 18.04C67.0292 16.9867 67.2426 16.0733 67.6692 15.3C68.0959 14.5267 68.6892 13.9267 69.4492 13.5C70.2092 13.06 71.0892 12.84 72.0892 12.84C73.0759 12.84 73.9359 13.0533 74.6692 13.48C75.4159 13.9067 75.9959 14.4933 76.4092 15.24C76.8359 15.9867 77.0492 16.8467 77.0492 17.82C77.0492 17.9933 77.0426 18.1667 77.0292 18.34C77.0159 18.5 76.9959 18.6533 76.9692 18.8H69.6092C69.6492 19.2667 69.7692 19.68 69.9692 20.04C70.1826 20.3867 70.4626 20.66 70.8092 20.86C71.1692 21.0467 71.5759 21.14 72.0292 21.14C72.4959 21.14 72.8959 21.04 73.2292 20.84C73.5759 20.64 73.8492 20.3333 74.0492 19.92H76.7892C76.6026 20.5067 76.3026 21.0533 75.8892 21.56C75.4759 22.0667 74.9492 22.4733 74.3092 22.78C73.6826 23.0867 72.9426 23.24 72.0892 23.24ZM69.6292 17.1H74.4092C74.3959 16.4333 74.1492 15.9067 73.6692 15.52C73.2026 15.1333 72.6492 14.94 72.0092 14.94C71.4626 14.94 70.9559 15.1133 70.4892 15.46C70.0226 15.7933 69.7359 16.34 69.6292 17.1ZM84.2839 23.24C83.6172 23.24 82.9906 23.1133 82.4039 22.86C81.8306 22.5933 81.3506 22.1867 80.9639 21.64V23H78.4039V9H80.9439V14.48C81.3172 13.9333 81.7972 13.5267 82.3839 13.26C82.9706 12.98 83.6039 12.84 84.2839 12.84C85.2306 12.84 86.0439 13.0733 86.7239 13.54C87.4172 13.9933 87.9506 14.6133 88.3239 15.4C88.6972 16.1733 88.8839 17.04 88.8839 18C88.8839 18.9467 88.6972 19.82 88.3239 20.62C87.9506 21.42 87.4172 22.06 86.7239 22.54C86.0439 23.0067 85.2306 23.24 84.2839 23.24ZM83.6039 21C84.1372 21 84.6039 20.8667 85.0039 20.6C85.4039 20.3333 85.7172 19.9733 85.9439 19.52C86.1706 19.0533 86.2839 18.5467 86.2839 18C86.2839 17.3733 86.1572 16.8467 85.9039 16.42C85.6639 15.98 85.3372 15.6467 84.9239 15.42C84.5239 15.1933 84.0839 15.08 83.6039 15.08C83.0839 15.08 82.6239 15.2067 82.2239 15.46C81.8372 15.7133 81.5306 16.0667 81.3039 16.52C81.0772 16.96 80.9639 17.4667 80.9639 18.04C80.9639 18.6267 81.0772 19.1467 81.3039 19.6C81.5439 20.04 81.8639 20.3867 82.2639 20.64C82.6639 20.88 83.1106 21 83.6039 21ZM90.617 23V15.22H89.457V13.08H90.617V12.32C90.617 11.12 90.917 10.2667 91.517 9.76C92.1304 9.25333 92.957 9 93.997 9H94.837V11.18H94.397C93.957 11.18 93.6437 11.2667 93.457 11.44C93.2704 11.6133 93.177 11.9067 93.177 12.32V13.08H94.957V15.22H93.177V23H90.617ZM96.517 23V9H99.077V23H96.517ZM105.646 23.24C104.646 23.24 103.753 23.0267 102.966 22.6C102.193 22.16 101.586 21.5467 101.146 20.76C100.706 19.9733 100.486 19.0667 100.486 18.04C100.486 16.96 100.72 16.0333 101.186 15.26C101.666 14.4733 102.3 13.8733 103.086 13.46C103.886 13.0467 104.766 12.84 105.726 12.84C106.726 12.84 107.62 13.06 108.406 13.5C109.193 13.9267 109.813 14.5267 110.266 15.3C110.733 16.0733 110.966 16.9867 110.966 18.04C110.966 19.04 110.74 19.9333 110.286 20.72C109.833 21.5067 109.206 22.1267 108.406 22.58C107.62 23.02 106.7 23.24 105.646 23.24ZM105.686 21.02C106.22 21.02 106.68 20.8867 107.066 20.62C107.466 20.34 107.78 19.9733 108.006 19.52C108.233 19.0533 108.346 18.5467 108.346 18C108.346 17.3733 108.22 16.84 107.966 16.4C107.726 15.96 107.406 15.6267 107.006 15.4C106.606 15.1733 106.166 15.06 105.686 15.06C105.166 15.06 104.706 15.1867 104.306 15.44C103.92 15.6933 103.613 16.0467 103.386 16.5C103.173 16.94 103.066 17.4533 103.066 18.04C103.066 18.6267 103.18 19.1467 103.406 19.6C103.646 20.0533 103.966 20.4067 104.366 20.66C104.766 20.9 105.206 21.02 105.686 21.02ZM114.095 23L111.135 13.08H113.715L115.495 20.62L117.415 13.08H120.115L121.995 20.6L123.775 13.08H126.215L123.275 22.98H120.535L118.695 16.06L116.855 23H114.095Z" fill="#EFEEEA"/>
</g>
<defs>
<clipPath id="clip0_94_967">
<rect width="126" height="32" fill="white" transform="translate(0.5)"/>
</clipPath>
<clipPath id="clip1_94_967">
<rect width="28" height="28" fill="white" transform="translate(0.5 2)"/>
</clipPath>
</defs>
</svg>
